<svg xmlns="http://www.w3.org/2000/svg" width="900" height="520">
<rect width="100%" height="100%" fill="white"/>
<text x="450.0" y="30" text-anchor="middle" font-size="24">Confronto context-switches: FIFO vs WAKE_RACE</text>
<line x1="90" y1="60" x2="90" y2="440" stroke="black"/>
<line x1="90" y1="440" x2="860" y2="440" stroke="black"/>
<line x1="85" y1="440.0" x2="90" y2="440.0" stroke="black"/>
<text x="80" y="445.0" text-anchor="end" font-size="12">0</text>
<line x1="85" y1="364.0" x2="90" y2="364.0" stroke="black"/>
<text x="80" y="369.0" text-anchor="end" font-size="12">1708</text>
<line x1="85" y1="288.0" x2="90" y2="288.0" stroke="black"/>
<text x="80" y="293.0" text-anchor="end" font-size="12">3415</text>
<line x1="85" y1="211.99999999999997" x2="90" y2="211.99999999999997" stroke="black"/>
<text x="80" y="216.99999999999997" text-anchor="end" font-size="12">5123</text>
<line x1="85" y1="136.0" x2="90" y2="136.0" stroke="black"/>
<text x="80" y="141.0" text-anchor="end" font-size="12">6830</text>
<line x1="85" y1="60.0" x2="90" y2="60.0" stroke="black"/>
<text x="80" y="65.0" text-anchor="end" font-size="12">8538</text>
<text x="25" y="250.0" transform="rotate(-90 25,250.0)" text-anchor="middle" font-size="16">Context switches</text>
<rect x="251.0" y="385.52098950524737" width="140" height="54.47901049475263" fill="#4C78A8" stroke="black"/>
<line x1="321.0" y1="385.52098950524737" x2="321.0" y2="385.52098950524737" stroke="black"/>
<line x1="311.0" y1="385.52098950524737" x2="331.0" y2="385.52098950524737" stroke="black"/>
<line x1="311.0" y1="385.52098950524737" x2="331.0" y2="385.52098950524737" stroke="black"/>
<text x="321.0" y="470" text-anchor="middle" font-size="16">FIFO</text>
<text x="321.0" y="375.52098950524737" text-anchor="middle" font-size="13">mean=1224.00</text>
<rect x="559.0" y="109.56521739130426" width="140" height="330.43478260869574" fill="#F58518" stroke="black"/>
<line x1="629.0" y1="109.56521739130426" x2="629.0" y2="109.56521739130426" stroke="black"/>
<line x1="619.0" y1="109.56521739130426" x2="639.0" y2="109.56521739130426" stroke="black"/>
<line x1="619.0" y1="109.56521739130426" x2="639.0" y2="109.56521739130426" stroke="black"/>
<text x="629.0" y="470" text-anchor="middle" font-size="16">WAKE_RACE</text>
<text x="629.0" y="99.56521739130426" text-anchor="middle" font-size="13">mean=7424.00</text>
</svg>